<svg width="1440" height="890" viewBox="0 0 1440 890" fill="none" xmlns="http://www.w3.org/2000/svg">
<g clip-path="url(#clip0_2009_675)">
<rect width="1440" height="890" fill="#030303"/>
<g opacity="0.18" filter="url(#filter0_f_2009_675)">
<ellipse cx="1360" cy="660" rx="410" ry="211" fill="white"/>
</g>
<g opacity="0.18" filter="url(#filter1_f_2009_675)">
<ellipse cx="410" cy="211" rx="410" ry="211" transform="matrix(1 0 0 -1 -455 384)" fill="white"/>
</g>
<g opacity="0.06" filter="url(#filter2_f_2009_675)">
<ellipse cx="295" cy="760" rx="505" ry="211" fill="white"/>
</g>
<g opacity="0.06" filter="url(#filter3_f_2009_675)">
<ellipse cx="1360" cy="5" rx="505" ry="211" fill="white"/>
</g>
<rect x="0.25" y="0.25" width="79.5" height="79.5" stroke="white" stroke-opacity="0.02" stroke-width="0.5"/>
<rect x="0.25" y="80.25" width="79.5" height="79.5" stroke="white" stroke-opacity="0.02" stroke-width="0.5"/>
<rect x="0.25" y="160.25" width="79.5" height="79.5" stroke="white" stroke-opacity="0.02" stroke-width="0.5"/>
<rect x="0.25" y="240.25" width="79.5" height="79.5" stroke="white" stroke-opacity="0.02" stroke-width="0.5"/>
<rect x="0.25" y="320.25" width="79.5" height="79.5" stroke="white" stroke-opacity="0.02" stroke-width="0.5"/>
<rect x="0.25" y="400.25" width="79.5" height="79.5" stroke="white" stroke-opacity="0.02" stroke-width="0.5"/>
<rect x="0.25" y="480.25" width="79.5" height="79.5" stroke="white" stroke-opacity="0.02" stroke-width="0.5"/>
<rect x="0.25" y="560.25" width="79.5" height="79.5" stroke="white" stroke-opacity="0.02" stroke-width="0.5"/>
<rect x="0.25" y="640.25" width="79.5" height="79.5" stroke="white" stroke-opacity="0.02" stroke-width="0.5"/>
<rect x="0.25" y="720.25" width="79.5" height="79.5" stroke="white" stroke-opacity="0.02" stroke-width="0.5"/>
<rect x="80.25" y="0.25" width="79.5" height="79.5" stroke="white" stroke-opacity="0.02" stroke-width="0.5"/>
<rect x="80.25" y="80.25" width="79.5" height="79.5" stroke="white" stroke-opacity="0.02" stroke-width="0.5"/>
<rect x="80.25" y="160.25" width="79.5" height="79.5" stroke="white" stroke-opacity="0.02" stroke-width="0.5"/>
<rect x="80.25" y="240.25" width="79.5" height="79.5" stroke="white" stroke-opacity="0.02" stroke-width="0.5"/>
<rect x="80.25" y="320.25" width="79.5" height="79.5" stroke="white" stroke-opacity="0.02" stroke-width="0.5"/>
<rect x="80.25" y="400.25" width="79.5" height="79.5" stroke="white" stroke-opacity="0.02" stroke-width="0.5"/>
<rect x="80.25" y="480.25" width="79.5" height="79.5" stroke="white" stroke-opacity="0.02" stroke-width="0.5"/>
<rect x="80.25" y="560.25" width="79.5" height="79.5" stroke="white" stroke-opacity="0.02" stroke-width="0.5"/>
<rect x="80.25" y="640.25" width="79.5" height="79.5" stroke="white" stroke-opacity="0.02" stroke-width="0.5"/>
<rect x="80.25" y="720.25" width="79.5" height="79.5" stroke="white" stroke-opacity="0.02" stroke-width="0.5"/>
<rect x="160.25" y="0.25" width="79.5" height="79.5" stroke="white" stroke-opacity="0.02" stroke-width="0.5"/>
<rect x="160.25" y="80.25" width="79.5" height="79.5" stroke="white" stroke-opacity="0.02" stroke-width="0.5"/>
<rect x="160.25" y="160.25" width="79.5" height="79.5" stroke="white" stroke-opacity="0.02" stroke-width="0.5"/>
<rect x="160.25" y="240.25" width="79.5" height="79.5" stroke="white" stroke-opacity="0.02" stroke-width="0.5"/>
<rect x="160.25" y="320.25" width="79.5" height="79.5" stroke="white" stroke-opacity="0.02" stroke-width="0.5"/>
<rect x="160.25" y="400.25" width="79.5" height="79.5" stroke="white" stroke-opacity="0.02" stroke-width="0.5"/>
<rect x="160.25" y="480.25" width="79.5" height="79.5" stroke="white" stroke-opacity="0.02" stroke-width="0.5"/>
<rect x="160.25" y="560.25" width="79.5" height="79.5" stroke="white" stroke-opacity="0.02" stroke-width="0.5"/>
<rect x="160.25" y="640.25" width="79.5" height="79.5" stroke="white" stroke-opacity="0.02" stroke-width="0.5"/>
<rect x="160.25" y="720.25" width="79.5" height="79.5" stroke="white" stroke-opacity="0.02" stroke-width="0.5"/>
<rect x="240.25" y="0.25" width="79.5" height="79.5" stroke="white" stroke-opacity="0.02" stroke-width="0.5"/>
<rect x="240.25" y="80.25" width="79.5" height="79.5" stroke="white" stroke-opacity="0.02" stroke-width="0.5"/>
<rect x="240.25" y="160.25" width="79.5" height="79.5" stroke="white" stroke-opacity="0.02" stroke-width="0.5"/>
<rect x="240.25" y="240.25" width="79.5" height="79.5" stroke="white" stroke-opacity="0.02" stroke-width="0.5"/>
<rect x="240.25" y="320.25" width="79.5" height="79.5" stroke="white" stroke-opacity="0.02" stroke-width="0.5"/>
<rect x="240.25" y="400.25" width="79.5" height="79.5" stroke="white" stroke-opacity="0.02" stroke-width="0.5"/>
<rect x="240.25" y="480.25" width="79.5" height="79.5" stroke="white" stroke-opacity="0.02" stroke-width="0.5"/>
<rect x="240.25" y="560.25" width="79.5" height="79.5" stroke="white" stroke-opacity="0.02" stroke-width="0.5"/>
<rect x="240.25" y="640.25" width="79.5" height="79.5" stroke="white" stroke-opacity="0.02" stroke-width="0.5"/>
<rect x="240.25" y="720.25" width="79.5" height="79.5" stroke="white" stroke-opacity="0.02" stroke-width="0.5"/>
<rect x="320.25" y="0.25" width="79.5" height="79.5" stroke="white" stroke-opacity="0.02" stroke-width="0.5"/>
<rect x="320.25" y="80.25" width="79.5" height="79.5" stroke="white" stroke-opacity="0.02" stroke-width="0.5"/>
<rect x="320.25" y="160.25" width="79.5" height="79.5" stroke="white" stroke-opacity="0.02" stroke-width="0.5"/>
<rect x="320.25" y="240.25" width="79.5" height="79.5" stroke="white" stroke-opacity="0.02" stroke-width="0.5"/>
<rect x="320.25" y="320.25" width="79.5" height="79.5" stroke="white" stroke-opacity="0.02" stroke-width="0.5"/>
<rect x="320.25" y="400.25" width="79.5" height="79.5" stroke="white" stroke-opacity="0.02" stroke-width="0.5"/>
<rect x="320.25" y="480.25" width="79.5" height="79.5" stroke="white" stroke-opacity="0.02" stroke-width="0.5"/>
<rect x="320.25" y="560.25" width="79.5" height="79.5" stroke="white" stroke-opacity="0.02" stroke-width="0.5"/>
<rect x="320.25" y="640.25" width="79.5" height="79.5" stroke="white" stroke-opacity="0.02" stroke-width="0.5"/>
<rect x="320.25" y="720.25" width="79.5" height="79.5" stroke="white" stroke-opacity="0.02" stroke-width="0.5"/>
<rect x="400.25" y="0.25" width="79.5" height="79.5" stroke="white" stroke-opacity="0.02" stroke-width="0.5"/>
<rect x="400.25" y="80.25" width="79.5" height="79.5" stroke="white" stroke-opacity="0.02" stroke-width="0.5"/>
<rect x="400.25" y="160.25" width="79.5" height="79.5" stroke="white" stroke-opacity="0.02" stroke-width="0.5"/>
<rect x="400.25" y="240.25" width="79.5" height="79.5" stroke="white" stroke-opacity="0.02" stroke-width="0.5"/>
<rect x="400.25" y="320.25" width="79.5" height="79.5" stroke="white" stroke-opacity="0.02" stroke-width="0.5"/>
<rect x="400.25" y="400.25" width="79.5" height="79.5" stroke="white" stroke-opacity="0.02" stroke-width="0.5"/>
<rect x="400.25" y="480.25" width="79.5" height="79.5" stroke="white" stroke-opacity="0.02" stroke-width="0.5"/>
<rect x="400.25" y="560.25" width="79.5" height="79.5" stroke="white" stroke-opacity="0.02" stroke-width="0.5"/>
<rect x="400.25" y="640.25" width="79.5" height="79.5" stroke="white" stroke-opacity="0.02" stroke-width="0.5"/>
<rect x="400.25" y="720.25" width="79.5" height="79.5" stroke="white" stroke-opacity="0.02" stroke-width="0.5"/>
<rect x="480.25" y="0.25" width="79.5" height="79.5" stroke="white" stroke-opacity="0.02" stroke-width="0.5"/>
<rect x="480.25" y="80.25" width="79.5" height="79.5" stroke="white" stroke-opacity="0.02" stroke-width="0.5"/>
<rect x="480.25" y="160.25" width="79.5" height="79.5" stroke="white" stroke-opacity="0.02" stroke-width="0.5"/>
<rect x="480.25" y="240.25" width="79.5" height="79.5" stroke="white" stroke-opacity="0.02" stroke-width="0.5"/>
<rect x="480.25" y="320.25" width="79.5" height="79.5" stroke="white" stroke-opacity="0.02" stroke-width="0.5"/>
<rect x="480.25" y="400.25" width="79.5" height="79.5" stroke="white" stroke-opacity="0.02" stroke-width="0.5"/>
<rect x="480.25" y="480.25" width="79.5" height="79.5" stroke="white" stroke-opacity="0.02" stroke-width="0.5"/>
<rect x="480.25" y="560.25" width="79.5" height="79.5" stroke="white" stroke-opacity="0.02" stroke-width="0.5"/>
<rect x="480.25" y="640.25" width="79.5" height="79.5" stroke="white" stroke-opacity="0.02" stroke-width="0.5"/>
<rect x="480.25" y="720.25" width="79.5" height="79.5" stroke="white" stroke-opacity="0.02" stroke-width="0.5"/>
<rect x="560.25" y="0.25" width="79.5" height="79.5" stroke="white" stroke-opacity="0.02" stroke-width="0.5"/>
<rect x="560.25" y="80.25" width="79.5" height="79.5" stroke="white" stroke-opacity="0.02" stroke-width="0.5"/>
<rect x="560.25" y="160.25" width="79.5" height="79.5" stroke="white" stroke-opacity="0.02" stroke-width="0.5"/>
<rect x="560.25" y="240.25" width="79.5" height="79.5" stroke="white" stroke-opacity="0.02" stroke-width="0.5"/>
<rect x="560.25" y="320.25" width="79.5" height="79.5" stroke="white" stroke-opacity="0.02" stroke-width="0.5"/>
<rect x="560.25" y="400.25" width="79.5" height="79.5" stroke="white" stroke-opacity="0.02" stroke-width="0.5"/>
<rect x="560.25" y="480.25" width="79.5" height="79.5" stroke="white" stroke-opacity="0.02" stroke-width="0.5"/>
<rect x="560.25" y="560.25" width="79.5" height="79.5" stroke="white" stroke-opacity="0.02" stroke-width="0.5"/>
<rect x="560.25" y="640.25" width="79.5" height="79.5" stroke="white" stroke-opacity="0.02" stroke-width="0.5"/>
<rect x="560.25" y="720.25" width="79.5" height="79.5" stroke="white" stroke-opacity="0.02" stroke-width="0.5"/>
<rect x="640.25" y="0.25" width="79.5" height="79.5" stroke="white" stroke-opacity="0.02" stroke-width="0.5"/>
<rect x="640.25" y="80.25" width="79.5" height="79.5" stroke="white" stroke-opacity="0.02" stroke-width="0.5"/>
<rect x="640.25" y="160.25" width="79.5" height="79.5" stroke="white" stroke-opacity="0.02" stroke-width="0.5"/>
<rect x="640.25" y="240.25" width="79.5" height="79.5" stroke="white" stroke-opacity="0.02" stroke-width="0.5"/>
<rect x="640.25" y="320.25" width="79.5" height="79.5" stroke="white" stroke-opacity="0.02" stroke-width="0.5"/>
<rect x="640.25" y="400.25" width="79.5" height="79.5" stroke="white" stroke-opacity="0.02" stroke-width="0.5"/>
<rect x="640.25" y="480.25" width="79.5" height="79.5" stroke="white" stroke-opacity="0.02" stroke-width="0.5"/>
<rect x="640.25" y="560.25" width="79.5" height="79.5" stroke="white" stroke-opacity="0.02" stroke-width="0.5"/>
<rect x="640.25" y="640.25" width="79.5" height="79.5" stroke="white" stroke-opacity="0.02" stroke-width="0.5"/>
<rect x="640.25" y="720.25" width="79.5" height="79.5" stroke="white" stroke-opacity="0.02" stroke-width="0.5"/>
<rect x="720.25" y="0.25" width="79.5" height="79.5" stroke="white" stroke-opacity="0.02" stroke-width="0.5"/>
<rect x="720.25" y="80.25" width="79.5" height="79.5" stroke="white" stroke-opacity="0.02" stroke-width="0.5"/>
<rect x="720.25" y="160.25" width="79.5" height="79.5" stroke="white" stroke-opacity="0.02" stroke-width="0.5"/>
<rect x="720.25" y="240.25" width="79.5" height="79.5" stroke="white" stroke-opacity="0.02" stroke-width="0.5"/>
<rect x="720.25" y="320.25" width="79.5" height="79.5" stroke="white" stroke-opacity="0.02" stroke-width="0.5"/>
<rect x="720.25" y="400.25" width="79.5" height="79.5" stroke="white" stroke-opacity="0.02" stroke-width="0.5"/>
<rect x="720.25" y="480.25" width="79.5" height="79.5" stroke="white" stroke-opacity="0.02" stroke-width="0.5"/>
<rect x="720.25" y="560.25" width="79.5" height="79.5" stroke="white" stroke-opacity="0.02" stroke-width="0.5"/>
<rect x="720.25" y="640.25" width="79.5" height="79.5" stroke="white" stroke-opacity="0.02" stroke-width="0.5"/>
<rect x="720.25" y="720.25" width="79.5" height="79.5" stroke="white" stroke-opacity="0.02" stroke-width="0.5"/>
<rect x="800.25" y="0.25" width="79.5" height="79.5" stroke="white" stroke-opacity="0.02" stroke-width="0.5"/>
<rect x="800.25" y="80.25" width="79.5" height="79.5" stroke="white" stroke-opacity="0.02" stroke-width="0.5"/>
<rect x="800.25" y="160.25" width="79.5" height="79.5" stroke="white" stroke-opacity="0.02" stroke-width="0.5"/>
<rect x="800.25" y="240.25" width="79.5" height="79.5" stroke="white" stroke-opacity="0.02" stroke-width="0.5"/>
<rect x="800.25" y="320.25" width="79.5" height="79.5" stroke="white" stroke-opacity="0.02" stroke-width="0.5"/>
<rect x="800.25" y="400.25" width="79.5" height="79.5" stroke="white" stroke-opacity="0.02" stroke-width="0.5"/>
<rect x="800.25" y="480.25" width="79.5" height="79.5" stroke="white" stroke-opacity="0.02" stroke-width="0.5"/>
<rect x="800.25" y="560.25" width="79.5" height="79.5" stroke="white" stroke-opacity="0.02" stroke-width="0.5"/>
<rect x="800.25" y="640.25" width="79.5" height="79.5" stroke="white" stroke-opacity="0.02" stroke-width="0.5"/>
<rect x="800.25" y="720.25" width="79.5" height="79.5" stroke="white" stroke-opacity="0.02" stroke-width="0.5"/>
<rect x="880.25" y="0.25" width="79.5" height="79.5" stroke="white" stroke-opacity="0.02" stroke-width="0.5"/>
<rect x="880.25" y="80.25" width="79.5" height="79.5" stroke="white" stroke-opacity="0.02" stroke-width="0.5"/>
<rect x="880.25" y="160.25" width="79.5" height="79.5" stroke="white" stroke-opacity="0.02" stroke-width="0.5"/>
<rect x="880.25" y="240.25" width="79.5" height="79.5" stroke="white" stroke-opacity="0.02" stroke-width="0.5"/>
<rect x="880.25" y="320.25" width="79.5" height="79.5" stroke="white" stroke-opacity="0.02" stroke-width="0.5"/>
<rect x="880.25" y="400.25" width="79.5" height="79.5" stroke="white" stroke-opacity="0.02" stroke-width="0.5"/>
<rect x="880.25" y="480.25" width="79.5" height="79.5" stroke="white" stroke-opacity="0.02" stroke-width="0.5"/>
<rect x="880.25" y="560.25" width="79.5" height="79.5" stroke="white" stroke-opacity="0.02" stroke-width="0.5"/>
<rect x="880.25" y="640.25" width="79.5" height="79.5" stroke="white" stroke-opacity="0.02" stroke-width="0.5"/>
<rect x="880.25" y="720.25" width="79.5" height="79.5" stroke="white" stroke-opacity="0.02" stroke-width="0.5"/>
<rect x="960.25" y="0.25" width="79.5" height="79.5" stroke="white" stroke-opacity="0.02" stroke-width="0.5"/>
<rect x="960.25" y="80.25" width="79.5" height="79.5" stroke="white" stroke-opacity="0.02" stroke-width="0.5"/>
<rect x="960.25" y="160.25" width="79.5" height="79.5" stroke="white" stroke-opacity="0.02" stroke-width="0.5"/>
<rect x="960.25" y="240.25" width="79.5" height="79.5" stroke="white" stroke-opacity="0.02" stroke-width="0.5"/>
<rect x="960.25" y="320.25" width="79.5" height="79.5" stroke="white" stroke-opacity="0.02" stroke-width="0.5"/>
<rect x="960.25" y="400.25" width="79.5" height="79.5" stroke="white" stroke-opacity="0.02" stroke-width="0.5"/>
<rect x="960.25" y="480.25" width="79.5" height="79.5" stroke="white" stroke-opacity="0.02" stroke-width="0.5"/>
<rect x="960.25" y="560.25" width="79.5" height="79.5" stroke="white" stroke-opacity="0.02" stroke-width="0.5"/>
<rect x="960.25" y="640.25" width="79.5" height="79.5" stroke="white" stroke-opacity="0.02" stroke-width="0.5"/>
<rect x="960.25" y="720.25" width="79.5" height="79.5" stroke="white" stroke-opacity="0.02" stroke-width="0.5"/>
<rect x="1040.25" y="0.25" width="79.5" height="79.5" stroke="white" stroke-opacity="0.02" stroke-width="0.5"/>
<rect x="1040.25" y="80.25" width="79.5" height="79.5" stroke="white" stroke-opacity="0.02" stroke-width="0.5"/>
<rect x="1040.25" y="160.25" width="79.5" height="79.5" stroke="white" stroke-opacity="0.02" stroke-width="0.5"/>
<rect x="1040.25" y="240.25" width="79.5" height="79.5" stroke="white" stroke-opacity="0.02" stroke-width="0.5"/>
<rect x="1040.25" y="320.25" width="79.5" height="79.5" stroke="white" stroke-opacity="0.02" stroke-width="0.5"/>
<rect x="1040.25" y="400.25" width="79.5" height="79.5" stroke="white" stroke-opacity="0.02" stroke-width="0.5"/>
<rect x="1040.25" y="480.25" width="79.5" height="79.5" stroke="white" stroke-opacity="0.02" stroke-width="0.5"/>
<rect x="1040.25" y="560.25" width="79.5" height="79.5" stroke="white" stroke-opacity="0.02" stroke-width="0.5"/>
<rect x="1040.25" y="640.25" width="79.5" height="79.5" stroke="white" stroke-opacity="0.02" stroke-width="0.5"/>
<rect x="1040.25" y="720.25" width="79.5" height="79.5" stroke="white" stroke-opacity="0.02" stroke-width="0.5"/>
<rect x="1120.25" y="0.25" width="79.5" height="79.5" stroke="white" stroke-opacity="0.02" stroke-width="0.5"/>
<rect x="1120.25" y="80.25" width="79.5" height="79.5" stroke="white" stroke-opacity="0.02" stroke-width="0.5"/>
<rect x="1120.25" y="160.25" width="79.5" height="79.5" stroke="white" stroke-opacity="0.02" stroke-width="0.5"/>
<rect x="1120.25" y="240.25" width="79.5" height="79.5" stroke="white" stroke-opacity="0.02" stroke-width="0.5"/>
<rect x="1120.25" y="320.25" width="79.5" height="79.5" stroke="white" stroke-opacity="0.02" stroke-width="0.5"/>
<rect x="1120.25" y="400.25" width="79.5" height="79.5" stroke="white" stroke-opacity="0.02" stroke-width="0.5"/>
<rect x="1120.25" y="480.25" width="79.5" height="79.5" stroke="white" stroke-opacity="0.02" stroke-width="0.5"/>
<rect x="1120.25" y="560.25" width="79.5" height="79.5" stroke="white" stroke-opacity="0.02" stroke-width="0.5"/>
<rect x="1120.25" y="640.25" width="79.5" height="79.5" stroke="white" stroke-opacity="0.02" stroke-width="0.5"/>
<rect x="1120.25" y="720.25" width="79.5" height="79.5" stroke="white" stroke-opacity="0.02" stroke-width="0.5"/>
<rect x="1200.25" y="0.25" width="79.5" height="79.5" stroke="white" stroke-opacity="0.02" stroke-width="0.5"/>
<rect x="1200.25" y="80.25" width="79.5" height="79.5" stroke="white" stroke-opacity="0.02" stroke-width="0.5"/>
<rect x="1200.25" y="160.25" width="79.5" height="79.5" stroke="white" stroke-opacity="0.02" stroke-width="0.5"/>
<rect x="1200.25" y="240.25" width="79.5" height="79.5" stroke="white" stroke-opacity="0.02" stroke-width="0.5"/>
<rect x="1200.25" y="320.25" width="79.5" height="79.5" stroke="white" stroke-opacity="0.02" stroke-width="0.5"/>
<rect x="1200.25" y="400.25" width="79.5" height="79.5" stroke="white" stroke-opacity="0.02" stroke-width="0.5"/>
<rect x="1200.25" y="480.25" width="79.5" height="79.5" stroke="white" stroke-opacity="0.02" stroke-width="0.5"/>
<rect x="1200.25" y="560.25" width="79.5" height="79.5" stroke="white" stroke-opacity="0.02" stroke-width="0.5"/>
<rect x="1200.25" y="640.25" width="79.5" height="79.5" stroke="white" stroke-opacity="0.02" stroke-width="0.5"/>
<rect x="1200.25" y="720.25" width="79.5" height="79.5" stroke="white" stroke-opacity="0.02" stroke-width="0.5"/>
<rect x="1280.25" y="0.25" width="79.5" height="79.5" stroke="white" stroke-opacity="0.02" stroke-width="0.5"/>
<rect x="1280.25" y="80.25" width="79.5" height="79.5" stroke="white" stroke-opacity="0.02" stroke-width="0.5"/>
<rect x="1280.25" y="160.25" width="79.5" height="79.5" stroke="white" stroke-opacity="0.02" stroke-width="0.5"/>
<rect x="1280.25" y="240.25" width="79.5" height="79.5" stroke="white" stroke-opacity="0.02" stroke-width="0.5"/>
<rect x="1280.25" y="320.25" width="79.5" height="79.5" stroke="white" stroke-opacity="0.02" stroke-width="0.5"/>
<rect x="1280.25" y="400.25" width="79.5" height="79.5" stroke="white" stroke-opacity="0.02" stroke-width="0.5"/>
<rect x="1280.25" y="480.25" width="79.5" height="79.5" stroke="white" stroke-opacity="0.02" stroke-width="0.5"/>
<rect x="1280.25" y="560.25" width="79.5" height="79.5" stroke="white" stroke-opacity="0.02" stroke-width="0.5"/>
<rect x="1280.25" y="640.25" width="79.5" height="79.5" stroke="white" stroke-opacity="0.02" stroke-width="0.5"/>
<rect x="1280.25" y="720.25" width="79.5" height="79.5" stroke="white" stroke-opacity="0.02" stroke-width="0.5"/>
<rect x="1360.25" y="0.25" width="79.5" height="79.5" stroke="white" stroke-opacity="0.02" stroke-width="0.5"/>
<rect x="1360.25" y="80.25" width="79.5" height="79.5" stroke="white" stroke-opacity="0.02" stroke-width="0.5"/>
<rect x="1360.25" y="160.25" width="79.5" height="79.5" stroke="white" stroke-opacity="0.02" stroke-width="0.5"/>
<rect x="1360.25" y="240.25" width="79.5" height="79.5" stroke="white" stroke-opacity="0.02" stroke-width="0.5"/>
<rect x="1360.25" y="320.25" width="79.5" height="79.5" stroke="white" stroke-opacity="0.02" stroke-width="0.5"/>
<rect x="1360.25" y="400.25" width="79.5" height="79.5" stroke="white" stroke-opacity="0.02" stroke-width="0.5"/>
<rect x="1360.25" y="480.25" width="79.5" height="79.5" stroke="white" stroke-opacity="0.02" stroke-width="0.5"/>
<rect x="1360.25" y="560.25" width="79.5" height="79.5" stroke="white" stroke-opacity="0.02" stroke-width="0.5"/>
<rect x="1360.25" y="640.25" width="79.5" height="79.5" stroke="white" stroke-opacity="0.02" stroke-width="0.5"/>
<rect x="1360.25" y="720.25" width="79.5" height="79.5" stroke="white" stroke-opacity="0.02" stroke-width="0.5"/>
<g opacity="0.31">
<path d="M160 237L160 170" stroke="url(#paint0_linear_2009_675)" stroke-linecap="round"/>
<path d="M160 241L160 308" stroke="url(#paint1_linear_2009_675)" stroke-linecap="round"/>
<path d="M158 240L91 240" stroke="url(#paint2_linear_2009_675)" stroke-linecap="round"/>
<path d="M163 240L230 240" stroke="url(#paint3_linear_2009_675)" stroke-linecap="round"/>
</g>
<circle cx="160" cy="240" r="3" fill="#B9B9B9"/>
<g opacity="0.31">
<path d="M400 398L400 331" stroke="url(#paint4_linear_2009_675)" stroke-linecap="round"/>
<path d="M400 402L400 469" stroke="url(#paint5_linear_2009_675)" stroke-linecap="round"/>
<path d="M398 401L331 401" stroke="url(#paint6_linear_2009_675)" stroke-linecap="round"/>
<path d="M403 401L470 401" stroke="url(#paint7_linear_2009_675)" stroke-linecap="round"/>
</g>
<circle cx="400" cy="401" r="3" fill="#B9B9B9"/>
<g opacity="0.31">
<path d="M1119 157L1119 90" stroke="url(#paint8_linear_2009_675)" stroke-linecap="round"/>
<path d="M1119 161L1119 228" stroke="url(#paint9_linear_2009_675)" stroke-linecap="round"/>
<path d="M1117 160L1050 160" stroke="url(#paint10_linear_2009_675)" stroke-linecap="round"/>
<path d="M1122 160L1189 160" stroke="url(#paint11_linear_2009_675)" stroke-linecap="round"/>
</g>
<circle cx="1119" cy="160" r="3" fill="#B9B9B9"/>
<g opacity="0.31">
<path d="M1279 478L1279 411" stroke="url(#paint12_linear_2009_675)" stroke-linecap="round"/>
<path d="M1279 482L1279 549" stroke="url(#paint13_linear_2009_675)" stroke-linecap="round"/>
<path d="M1277 481L1210 481" stroke="url(#paint14_linear_2009_675)" stroke-linecap="round"/>
<path d="M1282 481L1349 481" stroke="url(#paint15_linear_2009_675)" stroke-linecap="round"/>
</g>
<circle cx="1279" cy="481" r="3" fill="#B9B9B9"/>
</g>
<defs>
<filter id="filter0_f_2009_675" x="527.2" y="26.2" width="1665.6" height="1267.6" filterUnits="userSpaceOnUse" color-interpolation-filters="sRGB">
<feFlood flood-opacity="0" result="BackgroundImageFix"/>
<feBlend mode="normal" in="SourceGraphic" in2="BackgroundImageFix" result="shape"/>
<feGaussianBlur stdDeviation="211.4" result="effect1_foregroundBlur_2009_675"/>
</filter>
<filter id="filter1_f_2009_675" x="-877.8" y="-460.8" width="1665.6" height="1267.6" filterUnits="userSpaceOnUse" color-interpolation-filters="sRGB">
<feFlood flood-opacity="0" result="BackgroundImageFix"/>
<feBlend mode="normal" in="SourceGraphic" in2="BackgroundImageFix" result="shape"/>
<feGaussianBlur stdDeviation="211.4" result="effect1_foregroundBlur_2009_675"/>
</filter>
<filter id="filter2_f_2009_675" x="-632.8" y="126.2" width="1855.6" height="1267.6" filterUnits="userSpaceOnUse" color-interpolation-filters="sRGB">
<feFlood flood-opacity="0" result="BackgroundImageFix"/>
<feBlend mode="normal" in="SourceGraphic" in2="BackgroundImageFix" result="shape"/>
<feGaussianBlur stdDeviation="211.4" result="effect1_foregroundBlur_2009_675"/>
</filter>
<filter id="filter3_f_2009_675" x="432.2" y="-628.8" width="1855.6" height="1267.6" filterUnits="userSpaceOnUse" color-interpolation-filters="sRGB">
<feFlood flood-opacity="0" result="BackgroundImageFix"/>
<feBlend mode="normal" in="SourceGraphic" in2="BackgroundImageFix" result="shape"/>
<feGaussianBlur stdDeviation="211.4" result="effect1_foregroundBlur_2009_675"/>
</filter>
<linearGradient id="paint0_linear_2009_675" x1="160.498" y1="170" x2="160.498" y2="237" gradientUnits="userSpaceOnUse">
<stop stop-color="white" stop-opacity="0"/>
<stop offset="0.377244" stop-color="white" stop-opacity="0.254543"/>
<stop offset="0.674507" stop-color="white" stop-opacity="0.511256"/>
<stop offset="0.925475" stop-color="white" stop-opacity="0.705164"/>
<stop offset="1" stop-color="white"/>
</linearGradient>
<linearGradient id="paint1_linear_2009_675" x1="160.498" y1="308" x2="160.498" y2="241" gradientUnits="userSpaceOnUse">
<stop stop-color="white" stop-opacity="0"/>
<stop offset="0.377244" stop-color="white" stop-opacity="0.254543"/>
<stop offset="0.674507" stop-color="white" stop-opacity="0.511256"/>
<stop offset="0.925475" stop-color="white" stop-opacity="0.705164"/>
<stop offset="1" stop-color="white"/>
</linearGradient>
<linearGradient id="paint2_linear_2009_675" x1="91" y1="240.498" x2="158" y2="240.498" gradientUnits="userSpaceOnUse">
<stop stop-color="white" stop-opacity="0"/>
<stop offset="0.377244" stop-color="white" stop-opacity="0.254543"/>
<stop offset="0.674507" stop-color="white" stop-opacity="0.511256"/>
<stop offset="0.925475" stop-color="white" stop-opacity="0.705164"/>
<stop offset="1" stop-color="white"/>
</linearGradient>
<linearGradient id="paint3_linear_2009_675" x1="230" y1="240.498" x2="163" y2="240.498" gradientUnits="userSpaceOnUse">
<stop stop-color="white" stop-opacity="0"/>
<stop offset="0.377244" stop-color="white" stop-opacity="0.254543"/>
<stop offset="0.674507" stop-color="white" stop-opacity="0.511256"/>
<stop offset="0.925475" stop-color="white" stop-opacity="0.705164"/>
<stop offset="1" stop-color="white"/>
</linearGradient>
<linearGradient id="paint4_linear_2009_675" x1="400.498" y1="331" x2="400.498" y2="398" gradientUnits="userSpaceOnUse">
<stop stop-color="white" stop-opacity="0"/>
<stop offset="0.377244" stop-color="white" stop-opacity="0.254543"/>
<stop offset="0.674507" stop-color="white" stop-opacity="0.511256"/>
<stop offset="0.925475" stop-color="white" stop-opacity="0.705164"/>
<stop offset="1" stop-color="white"/>
</linearGradient>
<linearGradient id="paint5_linear_2009_675" x1="400.498" y1="469" x2="400.498" y2="402" gradientUnits="userSpaceOnUse">
<stop stop-color="white" stop-opacity="0"/>
<stop offset="0.377244" stop-color="white" stop-opacity="0.254543"/>
<stop offset="0.674507" stop-color="white" stop-opacity="0.511256"/>
<stop offset="0.925475" stop-color="white" stop-opacity="0.705164"/>
<stop offset="1" stop-color="white"/>
</linearGradient>
<linearGradient id="paint6_linear_2009_675" x1="331" y1="401.498" x2="398" y2="401.498" gradientUnits="userSpaceOnUse">
<stop stop-color="white" stop-opacity="0"/>
<stop offset="0.377244" stop-color="white" stop-opacity="0.254543"/>
<stop offset="0.674507" stop-color="white" stop-opacity="0.511256"/>
<stop offset="0.925475" stop-color="white" stop-opacity="0.705164"/>
<stop offset="1" stop-color="white"/>
</linearGradient>
<linearGradient id="paint7_linear_2009_675" x1="470" y1="401.498" x2="403" y2="401.498" gradientUnits="userSpaceOnUse">
<stop stop-color="white" stop-opacity="0"/>
<stop offset="0.377244" stop-color="white" stop-opacity="0.254543"/>
<stop offset="0.674507" stop-color="white" stop-opacity="0.511256"/>
<stop offset="0.925475" stop-color="white" stop-opacity="0.705164"/>
<stop offset="1" stop-color="white"/>
</linearGradient>
<linearGradient id="paint8_linear_2009_675" x1="1119.5" y1="90" x2="1119.5" y2="157" gradientUnits="userSpaceOnUse">
<stop stop-color="white" stop-opacity="0"/>
<stop offset="0.377244" stop-color="white" stop-opacity="0.254543"/>
<stop offset="0.674507" stop-color="white" stop-opacity="0.511256"/>
<stop offset="0.925475" stop-color="white" stop-opacity="0.705164"/>
<stop offset="1" stop-color="white"/>
</linearGradient>
<linearGradient id="paint9_linear_2009_675" x1="1119.5" y1="228" x2="1119.5" y2="161" gradientUnits="userSpaceOnUse">
<stop stop-color="white" stop-opacity="0"/>
<stop offset="0.377244" stop-color="white" stop-opacity="0.254543"/>
<stop offset="0.674507" stop-color="white" stop-opacity="0.511256"/>
<stop offset="0.925475" stop-color="white" stop-opacity="0.705164"/>
<stop offset="1" stop-color="white"/>
</linearGradient>
<linearGradient id="paint10_linear_2009_675" x1="1050" y1="160.498" x2="1117" y2="160.498" gradientUnits="userSpaceOnUse">
<stop stop-color="white" stop-opacity="0"/>
<stop offset="0.377244" stop-color="white" stop-opacity="0.254543"/>
<stop offset="0.674507" stop-color="white" stop-opacity="0.511256"/>
<stop offset="0.925475" stop-color="white" stop-opacity="0.705164"/>
<stop offset="1" stop-color="white"/>
</linearGradient>
<linearGradient id="paint11_linear_2009_675" x1="1189" y1="160.498" x2="1122" y2="160.498" gradientUnits="userSpaceOnUse">
<stop stop-color="white" stop-opacity="0"/>
<stop offset="0.377244" stop-color="white" stop-opacity="0.254543"/>
<stop offset="0.674507" stop-color="white" stop-opacity="0.511256"/>
<stop offset="0.925475" stop-color="white" stop-opacity="0.705164"/>
<stop offset="1" stop-color="white"/>
</linearGradient>
<linearGradient id="paint12_linear_2009_675" x1="1279.5" y1="411" x2="1279.5" y2="478" gradientUnits="userSpaceOnUse">
<stop stop-color="white" stop-opacity="0"/>
<stop offset="0.377244" stop-color="white" stop-opacity="0.254543"/>
<stop offset="0.674507" stop-color="white" stop-opacity="0.511256"/>
<stop offset="0.925475" stop-color="white" stop-opacity="0.705164"/>
<stop offset="1" stop-color="white"/>
</linearGradient>
<linearGradient id="paint13_linear_2009_675" x1="1279.5" y1="549" x2="1279.5" y2="482" gradientUnits="userSpaceOnUse">
<stop stop-color="white" stop-opacity="0"/>
<stop offset="0.377244" stop-color="white" stop-opacity="0.254543"/>
<stop offset="0.674507" stop-color="white" stop-opacity="0.511256"/>
<stop offset="0.925475" stop-color="white" stop-opacity="0.705164"/>
<stop offset="1" stop-color="white"/>
</linearGradient>
<linearGradient id="paint14_linear_2009_675" x1="1210" y1="481.498" x2="1277" y2="481.498" gradientUnits="userSpaceOnUse">
<stop stop-color="white" stop-opacity="0"/>
<stop offset="0.377244" stop-color="white" stop-opacity="0.254543"/>
<stop offset="0.674507" stop-color="white" stop-opacity="0.511256"/>
<stop offset="0.925475" stop-color="white" stop-opacity="0.705164"/>
<stop offset="1" stop-color="white"/>
</linearGradient>
<linearGradient id="paint15_linear_2009_675" x1="1349" y1="481.498" x2="1282" y2="481.498" gradientUnits="userSpaceOnUse">
<stop stop-color="white" stop-opacity="0"/>
<stop offset="0.377244" stop-color="white" stop-opacity="0.254543"/>
<stop offset="0.674507" stop-color="white" stop-opacity="0.511256"/>
<stop offset="0.925475" stop-color="white" stop-opacity="0.705164"/>
<stop offset="1" stop-color="white"/>
</linearGradient>
<clipPath id="clip0_2009_675">
<rect width="1440" height="890" fill="white"/>
</clipPath>
</defs>
</svg>
